<svg xmlns="http://www.w3.org/2000/svg" fill="none" viewBox="0 0 48 50"><g clip-path="url(#clip-chip-0.05-f480a8a7-f9c9-4182-87da-0781e49d5856)" filter="url(#filter-chip-0.05-f480a8a7-f9c9-4182-87da-0781e49d5856)"><path fill="#FEBB0F" d="M40.97 40.97c9.373-9.372 9.373-24.568 0-33.94-9.372-9.373-24.568-9.373-33.94 0-9.373 9.372-9.373 24.568 0 33.94 9.372 9.373 24.568 9.373 33.94 0z"></path><path fill="#FFE8AB" d="M9.866 4.601a24.13 24.13 0 00-2.721 2.313l-.022.021a24.131 24.131 0 00-2.34 2.685l4.827 4.887 2.539-2.506L14.69 9.49 9.866 4.6zM.31 20.121a24.121 24.121 0 00-.309 3.549v.035a24.207 24.207 0 00.218 3.56l6.87.085.046-3.567.046-3.573-6.87-.088zM9.37 33.119l-4.951 4.761a24.126 24.126 0 004.952 5.148l4.95-4.763-2.473-2.57-2.478-2.576zm10.62 7.65l-.177 6.868c2.358.413 4.765.475 7.141.184l.174-6.87-3.566-.09-3.572-.092zm18.146-6.902l-2.603 2.44-2.606 2.444 4.697 5.012a24.14 24.14 0 005.211-4.885l-4.698-5.01-.001-.001zm2.855-12.77l-.138 3.565-.137 3.57 6.864.265a24.05 24.05 0 00.402-3.541v-.022a24.23 24.23 0 00-.126-3.575l-6.866-.262zM39.122 5.362l-5.071 4.633 2.405 2.634 2.41 2.64 5.073-4.632a24.13 24.13 0 00-4.817-5.274zM24 0c-1.197 0-2.392.088-3.576.265l.002 6.87h4.017l.439.022 3.569.183.353-6.86A24.11 24.11 0 0024 0z" style="transform: rotate(0deg);"></path><path fill="#FEEAB7" d="M37.218 37.217c7.3-7.3 7.3-19.135 0-26.435-7.3-7.3-19.136-7.3-26.435 0-7.3 7.3-7.3 19.135 0 26.435 7.3 7.3 19.135 7.3 26.435 0z"></path><path fill="#FFF3D5" d="M35.45 35.467c6.335-6.336 6.337-16.607.002-22.94-6.334-6.335-16.605-6.334-22.94.001-6.336 6.336-6.337 16.607-.003 22.941s16.605 6.333 22.941-.002z"></path><path fill="#412802" d="M16.065 27.39v-5.065c0-1.18-.308-1.77-.923-1.77a.71.71 0 00-.43.13.92.92 0 00-.274.307c-.06.119-.107.27-.144.451a4.54 4.54 0 00-.062.451c-.004.124-.006.267-.006.431v5.066c0 .14.004.28.013.417.014.132.04.284.076.458.036.168.086.316.15.444a.928.928 0 00.267.314c.118.087.255.13.41.13.191 0 .353-.059.485-.177.132-.123.228-.285.287-.486.06-.2.098-.387.116-.56.023-.174.035-.354.035-.54zm-4.239 0v-5.065c0-.547.064-1.048.192-1.504.132-.46.328-.868.588-1.223.26-.356.603-.634 1.032-.834.433-.2.934-.301 1.504-.301.565 0 1.062.1 1.49.3.433.201.78.481 1.039.841.26.356.454.762.581 1.217.132.456.198.957.198 1.504v5.066a5.16 5.16 0 01-.205 1.476c-.137.456-.34.861-.608 1.217-.265.355-.61.638-1.04.848a3.331 3.331 0 01-1.455.307c-.552 0-1.044-.102-1.477-.307a2.745 2.745 0 01-1.039-.841 3.896 3.896 0 01-.601-1.217 5.356 5.356 0 01-.199-1.483zM19.288 31v-2.167h2.222V31h-2.222zm7.284-3.61v-5.065c0-1.18-.307-1.77-.923-1.77a.71.71 0 00-.43.13.92.92 0 00-.274.307c-.059.119-.107.27-.143.451a4.507 4.507 0 00-.062.451 11.73 11.73 0 00-.007.431v5.066c0 .14.005.28.014.417.014.132.039.284.075.458.037.168.087.316.15.444a.929.929 0 00.267.314c.119.087.255.13.41.13a.7.7 0 00.486-.177c.132-.123.228-.285.287-.486.06-.2.098-.387.116-.56.023-.174.034-.354.034-.54zm-4.238 0v-5.065c0-.547.064-1.048.191-1.504.133-.46.329-.868.588-1.223.26-.356.604-.634 1.032-.834.433-.2.935-.301 1.504-.301.566 0 1.062.1 1.49.3.434.201.78.481 1.04.841.26.356.453.762.58 1.217.133.456.199.957.199 1.504v5.066c0 .524-.068 1.016-.205 1.476-.137.456-.34.861-.608 1.217-.265.355-.611.638-1.04.848a3.33 3.33 0 01-1.456.307c-.551 0-1.043-.102-1.476-.307a2.744 2.744 0 01-1.04-.841 3.892 3.892 0 01-.6-1.217 5.352 5.352 0 01-.2-1.483zm7.434-.293h2.366c-.005.223-.005.412 0 .567.004.15.013.317.027.5.014.177.036.323.068.437.037.114.082.223.137.328.06.1.132.175.219.225a.694.694 0 00.314.069.89.89 0 00.404-.09.778.778 0 00.287-.238c.073-.105.134-.224.184-.356.055-.137.094-.28.117-.43a8.08 8.08 0 00.054-.465c.018-.16.025-.313.02-.458a6.089 6.089 0 010-.41v-.185a5.145 5.145 0 00-.041-.738 1.578 1.578 0 00-.253-.725.626.626 0 00-.259-.24.737.737 0 00-.37-.088c-.223 0-.42.098-.594.294a2.269 2.269 0 00-.403.663h-2.017v-7.069h5.859v2.338h-3.644v2.222c.438-.269.836-.403 1.196-.403.438 0 .825.07 1.162.212.342.14.616.328.82.56.21.233.381.515.514.848.136.332.23.674.28 1.025.05.347.075.725.075 1.135a11 11 0 01-.055 1.135 8.43 8.43 0 01-.184 1.066c-.087.36-.212.681-.376.964-.16.278-.358.529-.595.752a2.307 2.307 0 01-.875.513c-.351.123-.75.184-1.196.184-.506 0-.95-.073-1.333-.219a2.572 2.572 0 01-.937-.587 2.912 2.912 0 01-.58-.91 5.103 5.103 0 01-.308-1.128 9.344 9.344 0 01-.083-1.298z" style="transform: rotate(0deg);"></path></g><defs><filter id="filter-chip-0.05-f480a8a7-f9c9-4182-87da-0781e49d5856" width="48" height="52" x="0" y="0" color-interpolation-filters="sRGB" filterUnits="userSpaceOnUse"><feFlood flood-opacity="0" result="BackgroundImageFix"></feFlood><feColorMatrix in="SourceAlpha" values="0 0 0 0 0 0 0 0 0 0 0 0 0 0 0 0 0 0 127 0"></feColorMatrix><feOffset dy="2"></feOffset><feColorMatrix values="0 0 0 0 0.8875 0 0 0 0 0.640776 0 0 0 0 0.0073958 0 0 0 1 0"></feColorMatrix><feBlend in2="BackgroundImageFix" result="effect1_dropShadow"></feBlend><feBlend in="SourceGraphic" in2="effect1_dropShadow" result="shape"></feBlend></filter><clipPath id="clip-chip-0.05-f480a8a7-f9c9-4182-87da-0781e49d5856"><path fill="#fff" d="M0 0H48V50H0z"></path></clipPath></defs></svg>