<svg width="14" height="14" viewBox="0 0 24 24" fill="none" xmlns="http://www.w3.org/2000/svg"><path d="M24 13.937c0-2.748-4.762-5.007-10.857-5.251v.081l.082.544c3.21.19 5.959.98 7.455 2.096.79.598 1.252 1.251 1.252 1.986 0 .3-.082.571-.218.844-.217.408-.571.789-1.06 1.142-1.715 1.252-5.008 2.096-8.79 2.096-3.782 0-7.075-.844-8.79-2.096-.489-.353-.843-.734-1.06-1.142a1.944 1.944 0 01-.218-.844c0-.571.3-1.116.816-1.633 1.36-1.306 4.327-2.258 7.891-2.449l.082-.598C4.707 9.039.136 11.243.136 13.937c0 .136.027.272.027.408.055.354.19.68.408 1.007 0 0 0 .027.028.027 1.415 2.205 6.013 3.81 11.455 3.81 4.164 0 7.81-.925 9.932-2.367-2.013 1.796-6.04 2.993-10.694 2.993-5.197 0-9.605-1.524-11.292-3.646.626 3.047 5.741 5.415 11.946 5.415 6.639 0 12.027-2.694 12.027-6.041V14.209h-.027c.054-.054.054-.163.054-.272z" fill="#9893CB"></path><path d="M20.054 12.795a.877.877 0 00-.87.87.8.8 0 00.244.6c.164.163.381.271.626.271a.886.886 0 00.626-.272.8.8 0 00.245-.598.86.86 0 00-.87-.871zM13.363 10.047l.408 2.83c0 .598-1.55.898-1.877.898-.327 0-1.878-.3-1.878-.871l.408-2.857c-2.911.272-5.088 1.36-5.088 2.64 0 .57.435 1.115 1.197 1.55 1.197.68 3.157 1.143 5.36 1.143 2.205 0 4.164-.462 5.361-1.143.762-.435 1.198-.98 1.198-1.55 0-1.28-2.177-2.368-5.089-2.64z" fill="#9893CB"></path><path d="M7.866 8.25c.272 0 .49-.108.68-.271H10.995l-.108.734-.082.599-.027.245-.082.49-.408 2.911c0 .218 1.116.572 1.605.572.49 0 1.606-.354 1.606-.599l-.408-2.884-.082-.49-.027-.245-.082-.544v-.055l-.109-.707H15.513c.19.163.408.272.68.272.544 0 1.006-.463 1.006-1.007 0-.544-.462-1.007-1.006-1.007-.272 0-.49.11-.68.272h-2.939l-.055-.38c.055-.028.082-.028.136-.055.055-.027.082-.027.136-.054a1.898 1.898 0 001.034-1.715A1.94 1.94 0 0011.893 2.4a1.94 1.94 0 00-1.932 1.932c0 .735.436 1.388 1.034 1.715.055.027.082.054.137.054.054.027.081.027.136.054l-.055.381H8.546c-.19-.163-.408-.272-.68-.272-.544 0-1.007.463-1.007 1.007 0 .517.463.98 1.007.98zm5.28-4.108s-.11-.245-.572-.653c-.245-.245-.68-.49-.68-.49a1.208 1.208 0 011.251 1.143z" fill="#9893CB"></path></svg>